<mxfile host="app.diagrams.net" modified="2024-05-15T17:55:28.738Z" agent="Mozilla/5.0 (Windows NT 10.0; Win64; x64) AppleWebKit/537.36 (KHTML, like Gecko) Chrome/124.0.0.0 Safari/537.36 Edg/124.0.0.0" etag="mSDs2D6NbY64kXDzjb2O" version="24.4.0" type="github">
  <diagram name="第 1 页" id="PGdJFcqWluzx-1N40bFZ">
    <mxGraphModel dx="1635" dy="1147" grid="1" gridSize="10" guides="1" tooltips="1" connect="0" arrows="0" fold="1" page="1" pageScale="1" pageWidth="827" pageHeight="1169" math="0" shadow="0">
      <root>
        <mxCell id="0" />
        <mxCell id="1" parent="0" />
        <mxCell id="4JssBgyCznE4-cOEd2yI-1" value="" style="rounded=0;whiteSpace=wrap;html=1;movable=0;resizable=0;rotatable=0;deletable=0;editable=0;locked=1;connectable=0;" vertex="1" parent="1">
          <mxGeometry x="60" y="60" width="730" height="280" as="geometry" />
        </mxCell>
        <mxCell id="4JssBgyCznE4-cOEd2yI-2" value="&lt;p style=&quot;line-height: 120%;&quot;&gt;&lt;font style=&quot;font-size: 12px;&quot;&gt;提出问题&lt;/font&gt;&lt;/p&gt;" style="rounded=0;whiteSpace=wrap;html=1;textDirection=vertical-rl;" vertex="1" parent="1">
          <mxGeometry x="10" y="60" width="30" height="280" as="geometry" />
        </mxCell>
        <mxCell id="4JssBgyCznE4-cOEd2yI-3" value="绪论" style="rounded=0;whiteSpace=wrap;html=1;" vertex="1" parent="1">
          <mxGeometry x="70" y="70" width="710" height="30" as="geometry" />
        </mxCell>
        <mxCell id="4JssBgyCznE4-cOEd2yI-4" value="研究框架与方法" style="rounded=0;whiteSpace=wrap;html=1;" vertex="1" parent="1">
          <mxGeometry x="440" y="120" width="150" height="30" as="geometry" />
        </mxCell>
        <mxCell id="4JssBgyCznE4-cOEd2yI-5" value="研究背景" style="rounded=0;whiteSpace=wrap;html=1;" vertex="1" parent="1">
          <mxGeometry x="80" y="120" width="150" height="30" as="geometry" />
        </mxCell>
        <mxCell id="4JssBgyCznE4-cOEd2yI-6" value="研究目的与意义" style="rounded=0;whiteSpace=wrap;html=1;" vertex="1" parent="1">
          <mxGeometry x="260" y="120" width="150" height="30" as="geometry" />
        </mxCell>
        <mxCell id="4JssBgyCznE4-cOEd2yI-7" value="国内外文献综述" style="rounded=0;whiteSpace=wrap;html=1;" vertex="1" parent="1">
          <mxGeometry x="620" y="120" width="150" height="30" as="geometry" />
        </mxCell>
        <mxCell id="4JssBgyCznE4-cOEd2yI-8" value="社会背景" style="rounded=0;whiteSpace=wrap;html=1;textDirection=vertical-rl;" vertex="1" parent="1">
          <mxGeometry x="85" y="180" width="30" height="130" as="geometry" />
        </mxCell>
        <mxCell id="4JssBgyCznE4-cOEd2yI-9" value="政策背景" style="rounded=0;whiteSpace=wrap;html=1;textDirection=vertical-rl;" vertex="1" parent="1">
          <mxGeometry x="135" y="180" width="30" height="130" as="geometry" />
        </mxCell>
        <mxCell id="4JssBgyCznE4-cOEd2yI-10" value="现状背景" style="rounded=0;whiteSpace=wrap;html=1;textDirection=vertical-rl;" vertex="1" parent="1">
          <mxGeometry x="185" y="180" width="30" height="130" as="geometry" />
        </mxCell>
        <mxCell id="4JssBgyCznE4-cOEd2yI-11" value="研究目的" style="rounded=0;whiteSpace=wrap;html=1;textDirection=vertical-rl;" vertex="1" parent="1">
          <mxGeometry x="278" y="180" width="30" height="130" as="geometry" />
        </mxCell>
        <mxCell id="4JssBgyCznE4-cOEd2yI-12" value="研究意义" style="rounded=0;whiteSpace=wrap;html=1;textDirection=vertical-rl;" vertex="1" parent="1">
          <mxGeometry x="368" y="180" width="30" height="130" as="geometry" />
        </mxCell>
        <mxCell id="4JssBgyCznE4-cOEd2yI-13" value="研究框架" style="rounded=0;whiteSpace=wrap;html=1;textDirection=vertical-rl;" vertex="1" parent="1">
          <mxGeometry x="455" y="180" width="30" height="130" as="geometry" />
        </mxCell>
        <mxCell id="4JssBgyCznE4-cOEd2yI-14" value="研究方法" style="rounded=0;whiteSpace=wrap;html=1;textDirection=vertical-rl;" vertex="1" parent="1">
          <mxGeometry x="545" y="180" width="30" height="130" as="geometry" />
        </mxCell>
        <mxCell id="4JssBgyCznE4-cOEd2yI-15" value="国外相关研究" style="rounded=0;whiteSpace=wrap;html=1;textDirection=vertical-rl;" vertex="1" parent="1">
          <mxGeometry x="634" y="180" width="30" height="130" as="geometry" />
        </mxCell>
        <mxCell id="4JssBgyCznE4-cOEd2yI-16" value="国内相关研究" style="rounded=0;whiteSpace=wrap;html=1;textDirection=vertical-rl;" vertex="1" parent="1">
          <mxGeometry x="684" y="180" width="30" height="130" as="geometry" />
        </mxCell>
        <mxCell id="4JssBgyCznE4-cOEd2yI-17" value="国内外现有研究评述" style="rounded=0;whiteSpace=wrap;html=1;textDirection=vertical-rl;" vertex="1" parent="1">
          <mxGeometry x="734" y="180" width="30" height="130" as="geometry" />
        </mxCell>
        <mxCell id="4JssBgyCznE4-cOEd2yI-18" value="" style="rounded=0;whiteSpace=wrap;html=1;movable=1;resizable=1;rotatable=1;deletable=1;editable=1;locked=0;connectable=1;" vertex="1" parent="1">
          <mxGeometry x="60" y="360" width="730" height="290" as="geometry" />
        </mxCell>
        <mxCell id="4JssBgyCznE4-cOEd2yI-19" value="&lt;p style=&quot;line-height: 120%;&quot;&gt;&lt;font style=&quot;font-size: 12px;&quot;&gt;分析问题&lt;/font&gt;&lt;/p&gt;" style="rounded=0;whiteSpace=wrap;html=1;textDirection=vertical-rl;" vertex="1" parent="1">
          <mxGeometry x="10" y="360" width="30" height="290" as="geometry" />
        </mxCell>
        <mxCell id="4JssBgyCznE4-cOEd2yI-20" value="规划设计说明" style="rounded=0;whiteSpace=wrap;html=1;" vertex="1" parent="1">
          <mxGeometry x="70" y="370" width="710" height="30" as="geometry" />
        </mxCell>
        <mxCell id="4JssBgyCznE4-cOEd2yI-41" value="" style="rounded=0;whiteSpace=wrap;html=1;movable=0;resizable=0;rotatable=0;deletable=0;editable=0;locked=1;connectable=0;" vertex="1" parent="1">
          <mxGeometry x="560" y="430" width="190" height="170" as="geometry" />
        </mxCell>
        <mxCell id="4JssBgyCznE4-cOEd2yI-21" value="人群使用者需求以及现状矛盾分析" style="rounded=0;whiteSpace=wrap;html=1;" vertex="1" parent="1">
          <mxGeometry x="580" y="530" width="150" height="50" as="geometry" />
        </mxCell>
        <mxCell id="4JssBgyCznE4-cOEd2yI-42" value="" style="rounded=0;whiteSpace=wrap;html=1;movable=1;resizable=1;rotatable=1;deletable=1;editable=1;locked=0;connectable=1;" vertex="1" parent="1">
          <mxGeometry x="80" y="410" width="190" height="230" as="geometry" />
        </mxCell>
        <mxCell id="4JssBgyCznE4-cOEd2yI-22" value="区位分析&lt;span style=&quot;color: rgba(0, 0, 0, 0); font-family: monospace; font-size: 0px; text-align: start; text-wrap: nowrap;&quot;&gt;%3CmxGraphModel%3E%3Croot%3E%3CmxCell%20id%3D%220%22%2F%3E%3CmxCell%20id%3D%221%22%20parent%3D%220%22%2F%3E%3CmxCell%20id%3D%222%22%20value%3D%22%E7%A0%94%E7%A9%B6%E8%83%8C%E6%99%AF%22%20style%3D%22rounded%3D0%3BwhiteSpace%3Dwrap%3Bhtml%3D1%3B%22%20vertex%3D%221%22%20parent%3D%221%22%3E%3CmxGeometry%20x%3D%2280%22%20y%3D%22420%22%20width%3D%22150%22%20height%3D%2230%22%20as%3D%22geometry%22%2F%3E%3C%2FmxCell%3E%3C%2Froot%3E%3C%2FmxGraphModel%3E&lt;/span&gt;" style="rounded=0;whiteSpace=wrap;html=1;" vertex="1" parent="1">
          <mxGeometry x="100" y="420" width="150" height="30" as="geometry" />
        </mxCell>
        <mxCell id="4JssBgyCznE4-cOEd2yI-29" value="场地概况" style="rounded=0;whiteSpace=wrap;html=1;textDirection=vertical-rl;" vertex="1" parent="1">
          <mxGeometry x="345" y="450" width="30" height="130" as="geometry" />
        </mxCell>
        <mxCell id="4JssBgyCznE4-cOEd2yI-30" value="现存问题及矛盾分析" style="rounded=0;whiteSpace=wrap;html=1;textDirection=vertical-rl;" vertex="1" parent="1">
          <mxGeometry x="466" y="450" width="30" height="130" as="geometry" />
        </mxCell>
        <mxCell id="4JssBgyCznE4-cOEd2yI-35" value="人流与规模需求矛盾分析" style="rounded=0;whiteSpace=wrap;html=1;" vertex="1" parent="1">
          <mxGeometry x="580" y="450" width="150" height="50" as="geometry" />
        </mxCell>
        <mxCell id="4JssBgyCznE4-cOEd2yI-36" value="气象条件分析" style="rounded=0;whiteSpace=wrap;html=1;" vertex="1" parent="1">
          <mxGeometry x="100" y="465" width="150" height="30" as="geometry" />
        </mxCell>
        <mxCell id="4JssBgyCznE4-cOEd2yI-37" value="人文条件分析&lt;span style=&quot;color: rgba(0, 0, 0, 0); font-family: monospace; font-size: 0px; text-align: start; text-wrap: nowrap;&quot;&gt;%3CmxGraphModel%3E%3Croot%3E%3CmxCell%20id%3D%220%22%2F%3E%3CmxCell%20id%3D%221%22%20parent%3D%220%22%2F%3E%3CmxCell%20id%3D%222%22%20value%3D%22%E5%8C%BA%E4%BD%8D%E5%88%86%E6%9E%90%26lt%3Bspan%20style%3D%26quot%3Bcolor%3A%20rgba(0%2C%200%2C%200%2C%200)%3B%20font-family%3A%20monospace%3B%20font-size%3A%200px%3B%20text-align%3A%20start%3B%20text-wrap%3A%20nowrap%3B%26quot%3B%26gt%3B%253CmxGraphModel%253E%253Croot%253E%253CmxCell%2520id%253D%25220%2522%252F%253E%253CmxCell%2520id%253D%25221%2522%2520parent%253D%25220%2522%252F%253E%253CmxCell%2520id%253D%25222%2522%2520value%253D%2522%25E7%25A0%2594%25E7%25A9%25B6%25E8%2583%258C%25E6%2599%25AF%2522%2520style%253D%2522rounded%253D0%253BwhiteSpace%253Dwrap%253Bhtml%253D1%253B%2522%2520vertex%253D%25221%2522%2520parent%253D%25221%2522%253E%253CmxGeometry%2520x%253D%252280%2522%2520y%253D%2522420%2522%2520width%253D%2522150%2522%2520height%253D%252230%2522%2520as%253D%2522geometry%2522%252F%253E%253C%252FmxCell%253E%253C%252Froot%253E%253C%252FmxGraphModel%253E%26lt%3B%2Fspan%26gt%3B%22%20style%3D%22rounded%3D0%3BwhiteSpace%3Dwrap%3Bhtml%3D1%3B%22%20vertex%3D%221%22%20parent%3D%221%22%3E%3CmxGeometry%20x%3D%22100%22%20y%3D%22440%22%20width%3D%22150%22%20height%3D%2230%22%20as%3D%22geometry%22%2F%3E%3C%2FmxCell%3E%3C%2Froot%3E%3C%2FmxGraphModel%3E&lt;/span&gt;" style="rounded=0;whiteSpace=wrap;html=1;" vertex="1" parent="1">
          <mxGeometry x="100" y="510" width="150" height="30" as="geometry" />
        </mxCell>
        <mxCell id="4JssBgyCznE4-cOEd2yI-38" value="使用人群分析" style="rounded=0;whiteSpace=wrap;html=1;" vertex="1" parent="1">
          <mxGeometry x="100" y="555" width="150" height="30" as="geometry" />
        </mxCell>
        <mxCell id="4JssBgyCznE4-cOEd2yI-39" value="周边条件分析" style="rounded=0;whiteSpace=wrap;html=1;" vertex="1" parent="1">
          <mxGeometry x="100" y="600" width="150" height="30" as="geometry" />
        </mxCell>
        <mxCell id="4JssBgyCznE4-cOEd2yI-43" value="" style="rounded=0;whiteSpace=wrap;html=1;movable=1;resizable=1;rotatable=1;deletable=1;editable=1;locked=0;connectable=1;" vertex="1" parent="1">
          <mxGeometry x="60" y="670" width="730" height="240" as="geometry" />
        </mxCell>
        <mxCell id="4JssBgyCznE4-cOEd2yI-44" value="&lt;p style=&quot;line-height: 120%;&quot;&gt;&lt;font style=&quot;font-size: 12px;&quot;&gt;解决问题&lt;/font&gt;&lt;/p&gt;" style="rounded=0;whiteSpace=wrap;html=1;textDirection=vertical-rl;" vertex="1" parent="1">
          <mxGeometry x="10" y="670" width="30" height="240" as="geometry" />
        </mxCell>
        <mxCell id="4JssBgyCznE4-cOEd2yI-45" value="儿童友好理念下的城市公园景观更新改造" style="rounded=0;whiteSpace=wrap;html=1;" vertex="1" parent="1">
          <mxGeometry x="70" y="680" width="710" height="30" as="geometry" />
        </mxCell>
        <mxCell id="4JssBgyCznE4-cOEd2yI-46" value="" style="rounded=0;whiteSpace=wrap;html=1;movable=1;resizable=1;rotatable=1;deletable=1;editable=1;locked=0;connectable=1;" vertex="1" parent="1">
          <mxGeometry x="560" y="730" width="190" height="160" as="geometry" />
        </mxCell>
        <mxCell id="4JssBgyCznE4-cOEd2yI-47" value="打造互动性趣味场地" style="rounded=0;whiteSpace=wrap;html=1;" vertex="1" parent="1">
          <mxGeometry x="580" y="795" width="150" height="30" as="geometry" />
        </mxCell>
        <mxCell id="4JssBgyCznE4-cOEd2yI-48" value="" style="rounded=0;whiteSpace=wrap;html=1;movable=1;resizable=1;rotatable=1;deletable=1;editable=1;locked=0;connectable=1;" vertex="1" parent="1">
          <mxGeometry x="80" y="735" width="190" height="150" as="geometry" />
        </mxCell>
        <mxCell id="4JssBgyCznE4-cOEd2yI-49" value="教育性原则" style="rounded=0;whiteSpace=wrap;html=1;" vertex="1" parent="1">
          <mxGeometry x="100" y="750" width="150" height="30" as="geometry" />
        </mxCell>
        <mxCell id="4JssBgyCznE4-cOEd2yI-50" value="设计原则" style="rounded=0;whiteSpace=wrap;html=1;textDirection=vertical-rl;" vertex="1" parent="1">
          <mxGeometry x="324" y="745" width="30" height="130" as="geometry" />
        </mxCell>
        <mxCell id="4JssBgyCznE4-cOEd2yI-51" value="设计主题&lt;span style=&quot;color: rgba(0, 0, 0, 0); font-family: monospace; font-size: 0px; text-align: start; text-wrap: nowrap;&quot;&gt;%3CmxGraphModel%3E%3Croot%3E%3CmxCell%20id%3D%220%22%2F%3E%3CmxCell%20id%3D%221%22%20parent%3D%220%22%2F%3E%3CmxCell%20id%3D%222%22%20value%3D%22%E8%AE%BE%E8%AE%A1%E5%8E%9F%E5%88%99%22%20style%3D%22rounded%3D0%3BwhiteSpace%3Dwrap%3Bhtml%3D1%3BtextDirection%3Dvertical-rl%3B%22%20vertex%3D%221%22%20parent%3D%221%22%3E%3CmxGeometry%20x%3D%22310%22%20y%3D%22780%22%20width%3D%2230%22%20height%3D%22130%22%20as%3D%22geometry%22%2F%3E%3C%2FmxCell%3E%3C%2Froot%3E%3C%2FmxGraphModel%3E&lt;/span&gt;" style="rounded=0;whiteSpace=wrap;html=1;textDirection=vertical-rl;" vertex="1" parent="1">
          <mxGeometry x="424" y="745" width="30" height="130" as="geometry" />
        </mxCell>
        <mxCell id="4JssBgyCznE4-cOEd2yI-52" value="将教育融入环境设计" style="rounded=0;whiteSpace=wrap;html=1;" vertex="1" parent="1">
          <mxGeometry x="580" y="750" width="150" height="30" as="geometry" />
        </mxCell>
        <mxCell id="4JssBgyCznE4-cOEd2yI-53" value="互动性原则" style="rounded=0;whiteSpace=wrap;html=1;" vertex="1" parent="1">
          <mxGeometry x="100" y="795" width="150" height="30" as="geometry" />
        </mxCell>
        <mxCell id="4JssBgyCznE4-cOEd2yI-54" value="可达性原则" style="rounded=0;whiteSpace=wrap;html=1;" vertex="1" parent="1">
          <mxGeometry x="100" y="840" width="150" height="30" as="geometry" />
        </mxCell>
        <mxCell id="4JssBgyCznE4-cOEd2yI-57" value="设计理念与构思" style="rounded=0;whiteSpace=wrap;html=1;textDirection=vertical-rl;" vertex="1" parent="1">
          <mxGeometry x="374" y="745" width="30" height="130" as="geometry" />
        </mxCell>
        <mxCell id="4JssBgyCznE4-cOEd2yI-58" value="设计策略" style="rounded=0;whiteSpace=wrap;html=1;textDirection=vertical-rl;" vertex="1" parent="1">
          <mxGeometry x="474" y="745" width="30" height="130" as="geometry" />
        </mxCell>
        <mxCell id="4JssBgyCznE4-cOEd2yI-59" value="注重儿童安全和生理需求" style="rounded=0;whiteSpace=wrap;html=1;" vertex="1" parent="1">
          <mxGeometry x="580" y="840" width="150" height="30" as="geometry" />
        </mxCell>
        <mxCell id="4JssBgyCznE4-cOEd2yI-60" value="" style="rounded=0;whiteSpace=wrap;html=1;movable=1;resizable=1;rotatable=1;deletable=1;editable=1;locked=0;connectable=1;" vertex="1" parent="1">
          <mxGeometry x="60" y="930" width="730" height="230" as="geometry" />
        </mxCell>
        <mxCell id="4JssBgyCznE4-cOEd2yI-61" value="&lt;p style=&quot;line-height: 120%;&quot;&gt;&lt;font style=&quot;font-size: 12px;&quot;&gt;设计应用&lt;/font&gt;&lt;/p&gt;" style="rounded=0;whiteSpace=wrap;html=1;textDirection=vertical-rl;" vertex="1" parent="1">
          <mxGeometry x="10" y="930" width="30" height="230" as="geometry" />
        </mxCell>
        <mxCell id="4JssBgyCznE4-cOEd2yI-62" value="总体规划设计" style="rounded=0;whiteSpace=wrap;html=1;" vertex="1" parent="1">
          <mxGeometry x="70" y="940" width="710" height="30" as="geometry" />
        </mxCell>
        <mxCell id="4JssBgyCznE4-cOEd2yI-67" value="总平面设计" style="rounded=0;whiteSpace=wrap;html=1;textDirection=vertical-rl;" vertex="1" parent="1">
          <mxGeometry x="114" y="1000" width="30" height="130" as="geometry" />
        </mxCell>
        <mxCell id="4JssBgyCznE4-cOEd2yI-68" value="道路设计" style="rounded=0;whiteSpace=wrap;html=1;textDirection=vertical-rl;" vertex="1" parent="1">
          <mxGeometry x="274" y="1000" width="30" height="130" as="geometry" />
        </mxCell>
        <mxCell id="4JssBgyCznE4-cOEd2yI-72" value="分区设计" style="rounded=0;whiteSpace=wrap;html=1;textDirection=vertical-rl;" vertex="1" parent="1">
          <mxGeometry x="194" y="1000" width="30" height="130" as="geometry" />
        </mxCell>
        <mxCell id="4JssBgyCznE4-cOEd2yI-73" value="竖向设计&lt;span style=&quot;color: rgba(0, 0, 0, 0); font-family: monospace; font-size: 0px; text-align: start; text-wrap: nowrap;&quot;&gt;%3CmxGraphModel%3E%3Croot%3E%3CmxCell%20id%3D%220%22%2F%3E%3CmxCell%20id%3D%221%22%20parent%3D%220%22%2F%3E%3CmxCell%20id%3D%222%22%20value%3D%22%22%20style%3D%22rounded%3D0%3BwhiteSpace%3Dwrap%3Bhtml%3D1%3B%22%20vertex%3D%221%22%20parent%3D%221%22%3E%3CmxGeometry%20x%3D%2260%22%20y%3D%22680%22%20width%3D%22730%22%20height%3D%22240%22%20as%3D%22geometry%22%2F%3E%3C%2FmxCell%3E%3CmxCell%20id%3D%223%22%20value%3D%22%26lt%3Bp%20style%3D%26quot%3Bline-height%3A%20120%25%3B%26quot%3B%26gt%3B%26lt%3Bfont%20style%3D%26quot%3Bfont-size%3A%2012px%3B%26quot%3B%26gt%3B%E8%A7%A3%E5%86%B3%E9%97%AE%E9%A2%98%26lt%3B%2Ffont%26gt%3B%26lt%3B%2Fp%26gt%3B%22%20style%3D%22rounded%3D0%3BwhiteSpace%3Dwrap%3Bhtml%3D1%3BtextDirection%3Dvertical-rl%3B%22%20vertex%3D%221%22%20parent%3D%221%22%3E%3CmxGeometry%20x%3D%2210%22%20y%3D%22680%22%20width%3D%2230%22%20height%3D%22240%22%20as%3D%22geometry%22%2F%3E%3C%2FmxCell%3E%3CmxCell%20id%3D%224%22%20value%3D%22%E5%84%BF%E7%AB%A5%E5%8F%8B%E5%A5%BD%E7%90%86%E5%BF%B5%E4%B8%8B%E7%9A%84%E5%9F%8E%E5%B8%82%E5%85%AC%E5%9B%AD%E6%99%AF%E8%A7%82%E6%9B%B4%E6%96%B0%E6%94%B9%E9%80%A0%22%20style%3D%22rounded%3D0%3BwhiteSpace%3Dwrap%3Bhtml%3D1%3B%22%20vertex%3D%221%22%20parent%3D%221%22%3E%3CmxGeometry%20x%3D%2270%22%20y%3D%22690%22%20width%3D%22710%22%20height%3D%2230%22%20as%3D%22geometry%22%2F%3E%3C%2FmxCell%3E%3CmxCell%20id%3D%225%22%20value%3D%22%22%20style%3D%22rounded%3D0%3BwhiteSpace%3Dwrap%3Bhtml%3D1%3B%22%20vertex%3D%221%22%20parent%3D%221%22%3E%3CmxGeometry%20x%3D%22560%22%20y%3D%22740%22%20width%3D%22190%22%20height%3D%22160%22%20as%3D%22geometry%22%2F%3E%3C%2FmxCell%3E%3CmxCell%20id%3D%226%22%20value%3D%22%E6%89%93%E9%80%A0%E4%BA%92%E5%8A%A8%E6%80%A7%E8%B6%A3%E5%91%B3%E5%9C%BA%E5%9C%B0%22%20style%3D%22rounded%3D0%3BwhiteSpace%3Dwrap%3Bhtml%3D1%3B%22%20vertex%3D%221%22%20parent%3D%221%22%3E%3CmxGeometry%20x%3D%22580%22%20y%3D%22805%22%20width%3D%22150%22%20height%3D%2230%22%20as%3D%22geometry%22%2F%3E%3C%2FmxCell%3E%3CmxCell%20id%3D%227%22%20value%3D%22%22%20style%3D%22rounded%3D0%3BwhiteSpace%3Dwrap%3Bhtml%3D1%3B%22%20vertex%3D%221%22%20parent%3D%221%22%3E%3CmxGeometry%20x%3D%2280%22%20y%3D%22745%22%20width%3D%22190%22%20height%3D%22150%22%20as%3D%22geometry%22%2F%3E%3C%2FmxCell%3E%3CmxCell%20id%3D%228%22%20value%3D%22%E6%95%99%E8%82%B2%E6%80%A7%E5%8E%9F%E5%88%99%22%20style%3D%22rounded%3D0%3BwhiteSpace%3Dwrap%3Bhtml%3D1%3B%22%20vertex%3D%221%22%20parent%3D%221%22%3E%3CmxGeometry%20x%3D%22100%22%20y%3D%22760%22%20width%3D%22150%22%20height%3D%2230%22%20as%3D%22geometry%22%2F%3E%3C%2FmxCell%3E%3CmxCell%20id%3D%229%22%20value%3D%22%E8%AE%BE%E8%AE%A1%E5%8E%9F%E5%88%99%22%20style%3D%22rounded%3D0%3BwhiteSpace%3Dwrap%3Bhtml%3D1%3BtextDirection%3Dvertical-rl%3B%22%20vertex%3D%221%22%20parent%3D%221%22%3E%3CmxGeometry%20x%3D%22324%22%20y%3D%22755%22%20width%3D%2230%22%20height%3D%22130%22%20as%3D%22geometry%22%2F%3E%3C%2FmxCell%3E%3CmxCell%20id%3D%2210%22%20value%3D%22%E8%AE%BE%E8%AE%A1%E4%B8%BB%E9%A2%98%26lt%3Bspan%20style%3D%26quot%3Bcolor%3A%20rgba(0%2C%200%2C%200%2C%200)%3B%20font-family%3A%20monospace%3B%20font-size%3A%200px%3B%20text-align%3A%20start%3B%20text-wrap%3A%20nowrap%3B%26quot%3B%26gt%3B%253CmxGraphModel%253E%253Croot%253E%253CmxCell%2520id%253D%25220%2522%252F%253E%253CmxCell%2520id%253D%25221%2522%2520parent%253D%25220%2522%252F%253E%253CmxCell%2520id%253D%25222%2522%2520value%253D%2522%25E8%25AE%25BE%25E8%25AE%25A1%25E5%258E%259F%25E5%2588%2599%2522%2520style%253D%2522rounded%253D0%253BwhiteSpace%253Dwrap%253Bhtml%253D1%253BtextDirection%253Dvertical-rl%253B%2522%2520vertex%253D%25221%2522%2520parent%253D%25221%2522%253E%253CmxGeometry%2520x%253D%2522310%2522%2520y%253D%2522780%2522%2520width%253D%252230%2522%2520height%253D%2522130%2522%2520as%253D%2522geometry%2522%252F%253E%253C%252FmxCell%253E%253C%252Froot%253E%253C%252FmxGraphModel%253E%26lt%3B%2Fspan%26gt%3B%22%20style%3D%22rounded%3D0%3BwhiteSpace%3Dwrap%3Bhtml%3D1%3BtextDirection%3Dvertical-rl%3B%22%20vertex%3D%221%22%20parent%3D%221%22%3E%3CmxGeometry%20x%3D%22424%22%20y%3D%22755%22%20width%3D%2230%22%20height%3D%22130%22%20as%3D%22geometry%22%2F%3E%3C%2FmxCell%3E%3CmxCell%20id%3D%2211%22%20value%3D%22%E5%B0%86%E6%95%99%E8%82%B2%E8%9E%8D%E5%85%A5%E7%8E%AF%E5%A2%83%E8%AE%BE%E8%AE%A1%22%20style%3D%22rounded%3D0%3BwhiteSpace%3Dwrap%3Bhtml%3D1%3B%22%20vertex%3D%221%22%20parent%3D%221%22%3E%3CmxGeometry%20x%3D%22580%22%20y%3D%22760%22%20width%3D%22150%22%20height%3D%2230%22%20as%3D%22geometry%22%2F%3E%3C%2FmxCell%3E%3CmxCell%20id%3D%2212%22%20value%3D%22%E4%BA%92%E5%8A%A8%E6%80%A7%E5%8E%9F%E5%88%99%22%20style%3D%22rounded%3D0%3BwhiteSpace%3Dwrap%3Bhtml%3D1%3B%22%20vertex%3D%221%22%20parent%3D%221%22%3E%3CmxGeometry%20x%3D%22100%22%20y%3D%22805%22%20width%3D%22150%22%20height%3D%2230%22%20as%3D%22geometry%22%2F%3E%3C%2FmxCell%3E%3CmxCell%20id%3D%2213%22%20value%3D%22%E5%8F%AF%E8%BE%BE%E6%80%A7%E5%8E%9F%E5%88%99%22%20style%3D%22rounded%3D0%3BwhiteSpace%3Dwrap%3Bhtml%3D1%3B%22%20vertex%3D%221%22%20parent%3D%221%22%3E%3CmxGeometry%20x%3D%22100%22%20y%3D%22850%22%20width%3D%22150%22%20height%3D%2230%22%20as%3D%22geometry%22%2F%3E%3C%2FmxCell%3E%3CmxCell%20id%3D%2214%22%20value%3D%22%E8%AE%BE%E8%AE%A1%E7%90%86%E5%BF%B5%E4%B8%8E%E6%9E%84%E6%80%9D%22%20style%3D%22rounded%3D0%3BwhiteSpace%3Dwrap%3Bhtml%3D1%3BtextDirection%3Dvertical-rl%3B%22%20vertex%3D%221%22%20parent%3D%221%22%3E%3CmxGeometry%20x%3D%22374%22%20y%3D%22755%22%20width%3D%2230%22%20height%3D%22130%22%20as%3D%22geometry%22%2F%3E%3C%2FmxCell%3E%3CmxCell%20id%3D%2215%22%20value%3D%22%E8%AE%BE%E8%AE%A1%E7%AD%96%E7%95%A5%22%20style%3D%22rounded%3D0%3BwhiteSpace%3Dwrap%3Bhtml%3D1%3BtextDirection%3Dvertical-rl%3B%22%20vertex%3D%221%22%20parent%3D%221%22%3E%3CmxGeometry%20x%3D%22474%22%20y%3D%22755%22%20width%3D%2230%22%20height%3D%22130%22%20as%3D%22geometry%22%2F%3E%3C%2FmxCell%3E%3CmxCell%20id%3D%2216%22%20value%3D%22%E6%B3%A8%E9%87%8D%E5%84%BF%E7%AB%A5%E5%AE%89%E5%85%A8%E5%92%8C%E7%94%9F%E7%90%86%E9%9C%80%E6%B1%82%22%20style%3D%22rounded%3D0%3BwhiteSpace%3Dwrap%3Bhtml%3D1%3B%22%20vertex%3D%221%22%20parent%3D%221%22%3E%3CmxGeometry%20x%3D%22580%22%20y%3D%22850%22%20width%3D%22150%22%20height%3D%2230%22%20as%3D%22geometry%22%2F%3E%3C%2FmxCell%3E%3C%2Froot%3E%3C%2FmxGraphModel%3E&lt;/span&gt;" style="rounded=0;whiteSpace=wrap;html=1;textDirection=vertical-rl;" vertex="1" parent="1">
          <mxGeometry x="358" y="1000" width="30" height="130" as="geometry" />
        </mxCell>
        <mxCell id="4JssBgyCznE4-cOEd2yI-90" value="轴线与节点设计" style="rounded=0;whiteSpace=wrap;html=1;textDirection=vertical-rl;" vertex="1" parent="1">
          <mxGeometry x="444" y="1000" width="30" height="130" as="geometry" />
        </mxCell>
        <mxCell id="4JssBgyCznE4-cOEd2yI-91" value="植物设计" style="rounded=0;whiteSpace=wrap;html=1;textDirection=vertical-rl;" vertex="1" parent="1">
          <mxGeometry x="524" y="1000" width="30" height="130" as="geometry" />
        </mxCell>
        <mxCell id="4JssBgyCznE4-cOEd2yI-92" value="生态设计" style="rounded=0;whiteSpace=wrap;html=1;textDirection=vertical-rl;" vertex="1" parent="1">
          <mxGeometry x="604" y="1000" width="30" height="130" as="geometry" />
        </mxCell>
        <mxCell id="4JssBgyCznE4-cOEd2yI-93" value="设施与小品设计" style="rounded=0;whiteSpace=wrap;html=1;textDirection=vertical-rl;" vertex="1" parent="1">
          <mxGeometry x="684" y="1000" width="30" height="130" as="geometry" />
        </mxCell>
        <mxCell id="4JssBgyCznE4-cOEd2yI-100" value="" style="endArrow=none;html=1;rounded=0;" edge="1" parent="1">
          <mxGeometry width="50" height="50" relative="1" as="geometry">
            <mxPoint x="419" y="990" as="sourcePoint" />
            <mxPoint x="419" y="970" as="targetPoint" />
          </mxGeometry>
        </mxCell>
        <mxCell id="4JssBgyCznE4-cOEd2yI-101" value="" style="endArrow=none;html=1;rounded=0;" edge="1" parent="1">
          <mxGeometry width="50" height="50" relative="1" as="geometry">
            <mxPoint x="130" y="990" as="sourcePoint" />
            <mxPoint x="700" y="989" as="targetPoint" />
          </mxGeometry>
        </mxCell>
        <mxCell id="4JssBgyCznE4-cOEd2yI-102" value="" style="endArrow=none;html=1;rounded=0;exitX=0.538;exitY=0;exitDx=0;exitDy=0;exitPerimeter=0;" edge="1" parent="1" source="4JssBgyCznE4-cOEd2yI-67">
          <mxGeometry width="50" height="50" relative="1" as="geometry">
            <mxPoint x="80" y="1040" as="sourcePoint" />
            <mxPoint x="130" y="990" as="targetPoint" />
          </mxGeometry>
        </mxCell>
        <mxCell id="4JssBgyCznE4-cOEd2yI-103" value="" style="endArrow=none;html=1;rounded=0;exitX=0.538;exitY=0;exitDx=0;exitDy=0;exitPerimeter=0;" edge="1" parent="1">
          <mxGeometry width="50" height="50" relative="1" as="geometry">
            <mxPoint x="208.89" y="1000" as="sourcePoint" />
            <mxPoint x="208.89" y="990" as="targetPoint" />
          </mxGeometry>
        </mxCell>
        <mxCell id="4JssBgyCznE4-cOEd2yI-104" value="" style="endArrow=none;html=1;rounded=0;exitX=0.538;exitY=0;exitDx=0;exitDy=0;exitPerimeter=0;" edge="1" parent="1">
          <mxGeometry width="50" height="50" relative="1" as="geometry">
            <mxPoint x="288.89" y="1000" as="sourcePoint" />
            <mxPoint x="288.89" y="990" as="targetPoint" />
          </mxGeometry>
        </mxCell>
        <mxCell id="4JssBgyCznE4-cOEd2yI-106" value="" style="endArrow=none;html=1;rounded=0;exitX=0.538;exitY=0;exitDx=0;exitDy=0;exitPerimeter=0;" edge="1" parent="1">
          <mxGeometry width="50" height="50" relative="1" as="geometry">
            <mxPoint x="372.9" y="1000" as="sourcePoint" />
            <mxPoint x="372.9" y="990" as="targetPoint" />
          </mxGeometry>
        </mxCell>
        <mxCell id="4JssBgyCznE4-cOEd2yI-107" value="" style="endArrow=none;html=1;rounded=0;exitX=0.538;exitY=0;exitDx=0;exitDy=0;exitPerimeter=0;" edge="1" parent="1">
          <mxGeometry width="50" height="50" relative="1" as="geometry">
            <mxPoint x="458.9" y="1000" as="sourcePoint" />
            <mxPoint x="458.9" y="990" as="targetPoint" />
          </mxGeometry>
        </mxCell>
        <mxCell id="4JssBgyCznE4-cOEd2yI-108" value="" style="endArrow=none;html=1;rounded=0;exitX=0.538;exitY=0;exitDx=0;exitDy=0;exitPerimeter=0;" edge="1" parent="1">
          <mxGeometry width="50" height="50" relative="1" as="geometry">
            <mxPoint x="538.9" y="1000" as="sourcePoint" />
            <mxPoint x="538.9" y="990" as="targetPoint" />
          </mxGeometry>
        </mxCell>
        <mxCell id="4JssBgyCznE4-cOEd2yI-109" value="" style="endArrow=none;html=1;rounded=0;exitX=0.538;exitY=0;exitDx=0;exitDy=0;exitPerimeter=0;" edge="1" parent="1">
          <mxGeometry width="50" height="50" relative="1" as="geometry">
            <mxPoint x="618.9" y="1000" as="sourcePoint" />
            <mxPoint x="618.9" y="990" as="targetPoint" />
          </mxGeometry>
        </mxCell>
        <mxCell id="4JssBgyCznE4-cOEd2yI-110" value="" style="endArrow=none;html=1;rounded=0;exitX=0.538;exitY=0;exitDx=0;exitDy=0;exitPerimeter=0;" edge="1" parent="1">
          <mxGeometry width="50" height="50" relative="1" as="geometry">
            <mxPoint x="698.9" y="1000" as="sourcePoint" />
            <mxPoint x="698.9" y="990" as="targetPoint" />
          </mxGeometry>
        </mxCell>
        <mxCell id="4JssBgyCznE4-cOEd2yI-112" value="" style="endArrow=none;html=1;rounded=0;" edge="1" parent="1">
          <mxGeometry width="50" height="50" relative="1" as="geometry">
            <mxPoint x="420" y="730" as="sourcePoint" />
            <mxPoint x="420" y="710" as="targetPoint" />
          </mxGeometry>
        </mxCell>
        <mxCell id="4JssBgyCznE4-cOEd2yI-113" value="" style="endArrow=none;html=1;rounded=0;" edge="1" parent="1">
          <mxGeometry width="50" height="50" relative="1" as="geometry">
            <mxPoint x="340" y="730" as="sourcePoint" />
            <mxPoint x="490" y="730" as="targetPoint" />
          </mxGeometry>
        </mxCell>
        <mxCell id="4JssBgyCznE4-cOEd2yI-114" value="" style="endArrow=none;html=1;rounded=0;exitX=0.53;exitY=0.001;exitDx=0;exitDy=0;exitPerimeter=0;" edge="1" parent="1" source="4JssBgyCznE4-cOEd2yI-50">
          <mxGeometry width="50" height="50" relative="1" as="geometry">
            <mxPoint x="340" y="740" as="sourcePoint" />
            <mxPoint x="340" y="730" as="targetPoint" />
          </mxGeometry>
        </mxCell>
        <mxCell id="4JssBgyCznE4-cOEd2yI-115" value="" style="endArrow=none;html=1;rounded=0;exitX=0.53;exitY=0.001;exitDx=0;exitDy=0;exitPerimeter=0;" edge="1" parent="1">
          <mxGeometry width="50" height="50" relative="1" as="geometry">
            <mxPoint x="388.92" y="745" as="sourcePoint" />
            <mxPoint x="388.92" y="730" as="targetPoint" />
          </mxGeometry>
        </mxCell>
        <mxCell id="4JssBgyCznE4-cOEd2yI-116" value="" style="endArrow=none;html=1;rounded=0;exitX=0.53;exitY=0.001;exitDx=0;exitDy=0;exitPerimeter=0;" edge="1" parent="1">
          <mxGeometry width="50" height="50" relative="1" as="geometry">
            <mxPoint x="438.92" y="745" as="sourcePoint" />
            <mxPoint x="438.92" y="730" as="targetPoint" />
          </mxGeometry>
        </mxCell>
        <mxCell id="4JssBgyCznE4-cOEd2yI-117" value="" style="endArrow=none;html=1;rounded=0;exitX=0.53;exitY=0.001;exitDx=0;exitDy=0;exitPerimeter=0;" edge="1" parent="1">
          <mxGeometry width="50" height="50" relative="1" as="geometry">
            <mxPoint x="488.92" y="745" as="sourcePoint" />
            <mxPoint x="488.92" y="730" as="targetPoint" />
          </mxGeometry>
        </mxCell>
        <mxCell id="4JssBgyCznE4-cOEd2yI-118" value="" style="endArrow=none;html=1;rounded=0;exitX=1;exitY=0.5;exitDx=0;exitDy=0;exitPerimeter=0;entryX=0.014;entryY=0.496;entryDx=0;entryDy=0;entryPerimeter=0;" edge="1" parent="1" source="4JssBgyCznE4-cOEd2yI-48" target="4JssBgyCznE4-cOEd2yI-50">
          <mxGeometry width="50" height="50" relative="1" as="geometry">
            <mxPoint x="270" y="860" as="sourcePoint" />
            <mxPoint x="320" y="810" as="targetPoint" />
          </mxGeometry>
        </mxCell>
        <mxCell id="4JssBgyCznE4-cOEd2yI-119" value="" style="endArrow=none;html=1;rounded=0;exitX=1;exitY=0.5;exitDx=0;exitDy=0;exitPerimeter=0;" edge="1" parent="1" target="4JssBgyCznE4-cOEd2yI-46">
          <mxGeometry width="50" height="50" relative="1" as="geometry">
            <mxPoint x="504" y="810.5" as="sourcePoint" />
            <mxPoint x="558" y="809.5" as="targetPoint" />
          </mxGeometry>
        </mxCell>
        <mxCell id="4JssBgyCznE4-cOEd2yI-120" value="" style="endArrow=none;html=1;rounded=0;exitX=0.497;exitY=0.003;exitDx=0;exitDy=0;exitPerimeter=0;entryX=0.497;entryY=1.004;entryDx=0;entryDy=0;entryPerimeter=0;" edge="1" parent="1" source="4JssBgyCznE4-cOEd2yI-53" target="4JssBgyCznE4-cOEd2yI-49">
          <mxGeometry width="50" height="50" relative="1" as="geometry">
            <mxPoint x="120" y="830" as="sourcePoint" />
            <mxPoint x="175" y="780" as="targetPoint" />
          </mxGeometry>
        </mxCell>
        <mxCell id="4JssBgyCznE4-cOEd2yI-121" value="" style="endArrow=none;html=1;rounded=0;exitX=0.497;exitY=0.003;exitDx=0;exitDy=0;exitPerimeter=0;entryX=0.497;entryY=1.004;entryDx=0;entryDy=0;entryPerimeter=0;" edge="1" parent="1">
          <mxGeometry width="50" height="50" relative="1" as="geometry">
            <mxPoint x="174.86" y="840" as="sourcePoint" />
            <mxPoint x="174.86" y="825" as="targetPoint" />
          </mxGeometry>
        </mxCell>
        <mxCell id="4JssBgyCznE4-cOEd2yI-122" value="" style="endArrow=none;html=1;rounded=0;exitX=0.497;exitY=0.003;exitDx=0;exitDy=0;exitPerimeter=0;entryX=0.497;entryY=1.004;entryDx=0;entryDy=0;entryPerimeter=0;" edge="1" parent="1">
          <mxGeometry width="50" height="50" relative="1" as="geometry">
            <mxPoint x="654.86" y="795" as="sourcePoint" />
            <mxPoint x="654.86" y="780" as="targetPoint" />
          </mxGeometry>
        </mxCell>
        <mxCell id="4JssBgyCznE4-cOEd2yI-123" value="" style="endArrow=none;html=1;rounded=0;exitX=0.497;exitY=0.003;exitDx=0;exitDy=0;exitPerimeter=0;entryX=0.497;entryY=1.004;entryDx=0;entryDy=0;entryPerimeter=0;" edge="1" parent="1">
          <mxGeometry width="50" height="50" relative="1" as="geometry">
            <mxPoint x="654.86" y="840" as="sourcePoint" />
            <mxPoint x="654.86" y="825" as="targetPoint" />
          </mxGeometry>
        </mxCell>
        <mxCell id="4JssBgyCznE4-cOEd2yI-124" value="" style="endArrow=none;html=1;rounded=0;" edge="1" parent="1">
          <mxGeometry width="50" height="50" relative="1" as="geometry">
            <mxPoint x="420" y="430" as="sourcePoint" />
            <mxPoint x="420" y="400" as="targetPoint" />
          </mxGeometry>
        </mxCell>
        <mxCell id="4JssBgyCznE4-cOEd2yI-125" value="" style="endArrow=none;html=1;rounded=0;" edge="1" parent="1">
          <mxGeometry width="50" height="50" relative="1" as="geometry">
            <mxPoint x="360" y="430" as="sourcePoint" />
            <mxPoint x="480" y="430" as="targetPoint" />
          </mxGeometry>
        </mxCell>
        <mxCell id="4JssBgyCznE4-cOEd2yI-126" value="" style="endArrow=none;html=1;rounded=0;" edge="1" parent="1">
          <mxGeometry width="50" height="50" relative="1" as="geometry">
            <mxPoint x="360" y="450" as="sourcePoint" />
            <mxPoint x="360" y="430" as="targetPoint" />
          </mxGeometry>
        </mxCell>
        <mxCell id="4JssBgyCznE4-cOEd2yI-127" value="" style="endArrow=none;html=1;rounded=0;" edge="1" parent="1">
          <mxGeometry width="50" height="50" relative="1" as="geometry">
            <mxPoint x="480" y="450" as="sourcePoint" />
            <mxPoint x="480" y="430" as="targetPoint" />
          </mxGeometry>
        </mxCell>
        <mxCell id="4JssBgyCznE4-cOEd2yI-128" value="" style="endArrow=none;html=1;rounded=0;exitX=1.001;exitY=0.458;exitDx=0;exitDy=0;exitPerimeter=0;" edge="1" parent="1">
          <mxGeometry width="50" height="50" relative="1" as="geometry">
            <mxPoint x="270.19000000000005" y="514.9200000000001" as="sourcePoint" />
            <mxPoint x="345" y="515" as="targetPoint" />
          </mxGeometry>
        </mxCell>
        <mxCell id="4JssBgyCznE4-cOEd2yI-129" value="" style="endArrow=none;html=1;rounded=0;exitX=1.001;exitY=0.458;exitDx=0;exitDy=0;exitPerimeter=0;" edge="1" parent="1">
          <mxGeometry width="50" height="50" relative="1" as="geometry">
            <mxPoint x="496" y="514.66" as="sourcePoint" />
            <mxPoint x="560" y="515" as="targetPoint" />
          </mxGeometry>
        </mxCell>
        <mxCell id="4JssBgyCznE4-cOEd2yI-130" value="" style="endArrow=none;html=1;rounded=0;exitX=0.467;exitY=-0.002;exitDx=0;exitDy=0;exitPerimeter=0;" edge="1" parent="1">
          <mxGeometry width="50" height="50" relative="1" as="geometry">
            <mxPoint x="660.05" y="529.9" as="sourcePoint" />
            <mxPoint x="660" y="500" as="targetPoint" />
          </mxGeometry>
        </mxCell>
        <mxCell id="4JssBgyCznE4-cOEd2yI-131" value="" style="endArrow=none;html=1;rounded=0;exitX=0.537;exitY=0;exitDx=0;exitDy=0;exitPerimeter=0;entryX=0.537;entryY=0.992;entryDx=0;entryDy=0;entryPerimeter=0;" edge="1" parent="1">
          <mxGeometry width="50" height="50" relative="1" as="geometry">
            <mxPoint x="174.88000000000002" y="465.24" as="sourcePoint" />
            <mxPoint x="174.88000000000002" y="450" as="targetPoint" />
          </mxGeometry>
        </mxCell>
        <mxCell id="4JssBgyCznE4-cOEd2yI-133" value="" style="endArrow=none;html=1;rounded=0;exitX=0.537;exitY=0;exitDx=0;exitDy=0;exitPerimeter=0;entryX=0.537;entryY=0.992;entryDx=0;entryDy=0;entryPerimeter=0;" edge="1" parent="1">
          <mxGeometry width="50" height="50" relative="1" as="geometry">
            <mxPoint x="174.88000000000002" y="510.24" as="sourcePoint" />
            <mxPoint x="174.88000000000002" y="495" as="targetPoint" />
          </mxGeometry>
        </mxCell>
        <mxCell id="4JssBgyCznE4-cOEd2yI-134" value="" style="endArrow=none;html=1;rounded=0;exitX=0.537;exitY=0;exitDx=0;exitDy=0;exitPerimeter=0;entryX=0.537;entryY=0.992;entryDx=0;entryDy=0;entryPerimeter=0;" edge="1" parent="1">
          <mxGeometry width="50" height="50" relative="1" as="geometry">
            <mxPoint x="174.88000000000002" y="555.24" as="sourcePoint" />
            <mxPoint x="174.88000000000002" y="540" as="targetPoint" />
          </mxGeometry>
        </mxCell>
        <mxCell id="4JssBgyCznE4-cOEd2yI-135" value="" style="endArrow=none;html=1;rounded=0;exitX=0.537;exitY=0;exitDx=0;exitDy=0;exitPerimeter=0;entryX=0.537;entryY=0.992;entryDx=0;entryDy=0;entryPerimeter=0;" edge="1" parent="1">
          <mxGeometry width="50" height="50" relative="1" as="geometry">
            <mxPoint x="174.88000000000002" y="600.24" as="sourcePoint" />
            <mxPoint x="174.88000000000002" y="585" as="targetPoint" />
          </mxGeometry>
        </mxCell>
        <mxCell id="4JssBgyCznE4-cOEd2yI-136" value="" style="endArrow=none;html=1;rounded=0;" edge="1" parent="1">
          <mxGeometry width="50" height="50" relative="1" as="geometry">
            <mxPoint x="430" y="110" as="sourcePoint" />
            <mxPoint x="430" y="100" as="targetPoint" />
          </mxGeometry>
        </mxCell>
        <mxCell id="4JssBgyCznE4-cOEd2yI-137" value="" style="endArrow=none;html=1;rounded=0;" edge="1" parent="1">
          <mxGeometry width="50" height="50" relative="1" as="geometry">
            <mxPoint x="150" y="110" as="sourcePoint" />
            <mxPoint x="700" y="110" as="targetPoint" />
          </mxGeometry>
        </mxCell>
        <mxCell id="4JssBgyCznE4-cOEd2yI-138" value="" style="endArrow=none;html=1;rounded=0;" edge="1" parent="1">
          <mxGeometry width="50" height="50" relative="1" as="geometry">
            <mxPoint x="150" y="120" as="sourcePoint" />
            <mxPoint x="150" y="110" as="targetPoint" />
          </mxGeometry>
        </mxCell>
        <mxCell id="4JssBgyCznE4-cOEd2yI-139" value="" style="endArrow=none;html=1;rounded=0;" edge="1" parent="1">
          <mxGeometry width="50" height="50" relative="1" as="geometry">
            <mxPoint x="338.9" y="120" as="sourcePoint" />
            <mxPoint x="338.9" y="110" as="targetPoint" />
          </mxGeometry>
        </mxCell>
        <mxCell id="4JssBgyCznE4-cOEd2yI-140" value="" style="endArrow=none;html=1;rounded=0;" edge="1" parent="1">
          <mxGeometry width="50" height="50" relative="1" as="geometry">
            <mxPoint x="514.9" y="120" as="sourcePoint" />
            <mxPoint x="514.9" y="110" as="targetPoint" />
          </mxGeometry>
        </mxCell>
        <mxCell id="4JssBgyCznE4-cOEd2yI-141" value="" style="endArrow=none;html=1;rounded=0;" edge="1" parent="1">
          <mxGeometry width="50" height="50" relative="1" as="geometry">
            <mxPoint x="698.9" y="120" as="sourcePoint" />
            <mxPoint x="698.9" y="110" as="targetPoint" />
          </mxGeometry>
        </mxCell>
        <mxCell id="4JssBgyCznE4-cOEd2yI-142" value="" style="endArrow=none;html=1;rounded=0;" edge="1" parent="1">
          <mxGeometry width="50" height="50" relative="1" as="geometry">
            <mxPoint x="150" y="180" as="sourcePoint" />
            <mxPoint x="150" y="150" as="targetPoint" />
          </mxGeometry>
        </mxCell>
        <mxCell id="4JssBgyCznE4-cOEd2yI-143" value="" style="endArrow=none;html=1;rounded=0;" edge="1" parent="1">
          <mxGeometry width="50" height="50" relative="1" as="geometry">
            <mxPoint x="100" y="170" as="sourcePoint" />
            <mxPoint x="200" y="170" as="targetPoint" />
          </mxGeometry>
        </mxCell>
        <mxCell id="4JssBgyCznE4-cOEd2yI-144" value="" style="endArrow=none;html=1;rounded=0;" edge="1" parent="1">
          <mxGeometry width="50" height="50" relative="1" as="geometry">
            <mxPoint x="100" y="180" as="sourcePoint" />
            <mxPoint x="100" y="170" as="targetPoint" />
          </mxGeometry>
        </mxCell>
        <mxCell id="4JssBgyCznE4-cOEd2yI-145" value="" style="endArrow=none;html=1;rounded=0;" edge="1" parent="1">
          <mxGeometry width="50" height="50" relative="1" as="geometry">
            <mxPoint x="200" y="180" as="sourcePoint" />
            <mxPoint x="200" y="170" as="targetPoint" />
          </mxGeometry>
        </mxCell>
        <mxCell id="4JssBgyCznE4-cOEd2yI-146" value="" style="endArrow=none;html=1;rounded=0;" edge="1" parent="1">
          <mxGeometry width="50" height="50" relative="1" as="geometry">
            <mxPoint x="698.75" y="180" as="sourcePoint" />
            <mxPoint x="698.75" y="150" as="targetPoint" />
          </mxGeometry>
        </mxCell>
        <mxCell id="4JssBgyCznE4-cOEd2yI-147" value="" style="endArrow=none;html=1;rounded=0;" edge="1" parent="1">
          <mxGeometry width="50" height="50" relative="1" as="geometry">
            <mxPoint x="648.75" y="170" as="sourcePoint" />
            <mxPoint x="748.75" y="170" as="targetPoint" />
          </mxGeometry>
        </mxCell>
        <mxCell id="4JssBgyCznE4-cOEd2yI-148" value="" style="endArrow=none;html=1;rounded=0;" edge="1" parent="1">
          <mxGeometry width="50" height="50" relative="1" as="geometry">
            <mxPoint x="648.75" y="180" as="sourcePoint" />
            <mxPoint x="648.75" y="170" as="targetPoint" />
          </mxGeometry>
        </mxCell>
        <mxCell id="4JssBgyCznE4-cOEd2yI-149" value="" style="endArrow=none;html=1;rounded=0;" edge="1" parent="1">
          <mxGeometry width="50" height="50" relative="1" as="geometry">
            <mxPoint x="748.75" y="180" as="sourcePoint" />
            <mxPoint x="748.75" y="170" as="targetPoint" />
          </mxGeometry>
        </mxCell>
        <mxCell id="4JssBgyCznE4-cOEd2yI-150" value="" style="endArrow=none;html=1;rounded=0;" edge="1" parent="1">
          <mxGeometry width="50" height="50" relative="1" as="geometry">
            <mxPoint x="514" y="170" as="sourcePoint" />
            <mxPoint x="514" y="150" as="targetPoint" />
          </mxGeometry>
        </mxCell>
        <mxCell id="4JssBgyCznE4-cOEd2yI-151" value="" style="endArrow=none;html=1;rounded=0;" edge="1" parent="1">
          <mxGeometry width="50" height="50" relative="1" as="geometry">
            <mxPoint x="470" y="170" as="sourcePoint" />
            <mxPoint x="560" y="170" as="targetPoint" />
          </mxGeometry>
        </mxCell>
        <mxCell id="4JssBgyCznE4-cOEd2yI-152" value="" style="endArrow=none;html=1;rounded=0;" edge="1" parent="1">
          <mxGeometry width="50" height="50" relative="1" as="geometry">
            <mxPoint x="470" y="180" as="sourcePoint" />
            <mxPoint x="470" y="170" as="targetPoint" />
          </mxGeometry>
        </mxCell>
        <mxCell id="4JssBgyCznE4-cOEd2yI-153" value="" style="endArrow=none;html=1;rounded=0;" edge="1" parent="1">
          <mxGeometry width="50" height="50" relative="1" as="geometry">
            <mxPoint x="559.83" y="180" as="sourcePoint" />
            <mxPoint x="559.83" y="170" as="targetPoint" />
          </mxGeometry>
        </mxCell>
        <mxCell id="4JssBgyCznE4-cOEd2yI-154" value="" style="endArrow=none;html=1;rounded=0;" edge="1" parent="1">
          <mxGeometry width="50" height="50" relative="1" as="geometry">
            <mxPoint x="337.78999999999996" y="170" as="sourcePoint" />
            <mxPoint x="337.78999999999996" y="150" as="targetPoint" />
          </mxGeometry>
        </mxCell>
        <mxCell id="4JssBgyCznE4-cOEd2yI-155" value="" style="endArrow=none;html=1;rounded=0;" edge="1" parent="1">
          <mxGeometry width="50" height="50" relative="1" as="geometry">
            <mxPoint x="293.78999999999996" y="170" as="sourcePoint" />
            <mxPoint x="383.78999999999996" y="170" as="targetPoint" />
          </mxGeometry>
        </mxCell>
        <mxCell id="4JssBgyCznE4-cOEd2yI-156" value="" style="endArrow=none;html=1;rounded=0;" edge="1" parent="1">
          <mxGeometry width="50" height="50" relative="1" as="geometry">
            <mxPoint x="293.78999999999996" y="180" as="sourcePoint" />
            <mxPoint x="293.78999999999996" y="170" as="targetPoint" />
          </mxGeometry>
        </mxCell>
        <mxCell id="4JssBgyCznE4-cOEd2yI-157" value="" style="endArrow=none;html=1;rounded=0;" edge="1" parent="1">
          <mxGeometry width="50" height="50" relative="1" as="geometry">
            <mxPoint x="383.62" y="180" as="sourcePoint" />
            <mxPoint x="383.62" y="170" as="targetPoint" />
          </mxGeometry>
        </mxCell>
      </root>
    </mxGraphModel>
  </diagram>
</mxfile>
